REM DIRINDEX 1\3,1\4,1\5,1\6,1\2\7,1\2\8,1\2\9,1\2\10,1\2\11
REM DIRNAME cjc021,folder01,folder02,folder03,folder04,folder05,folder06,folder07,folder08,folder09,folder10
TITLE ""
FILE "DISC5Track31.mp3" MP3
  TRACK 01 AUDIO
    TITLE "0:"
    INDEX 01 00:00:00
  TRACK 02 AUDIO
    TITLE "3:cjc021_5657"
    INDEX 01 00:00:23
  TRACK 03 AUDIO
    TITLE "0:"
    INDEX 01 00:01:62
  TRACK 04 AUDIO
    TITLE "4:cjc021_5658"
    INDEX 01 00:03:37
  TRACK 05 AUDIO
    TITLE "0:"
    INDEX 01 00:05:01
  TRACK 06 AUDIO
    TITLE "5:cjc021_5659"
    INDEX 01 00:05:34
  TRACK 07 AUDIO
    TITLE "0:"
    INDEX 01 00:09:12
  TRACK 08 AUDIO
    TITLE "3:cjc021_5660"
    INDEX 01 00:10:45
  TRACK 09 AUDIO
    TITLE "0:"
    INDEX 01 00:11:62
  TRACK 10 AUDIO
    TITLE "4:cjc021_5661"
    INDEX 01 00:13:37
  TRACK 11 AUDIO
    TITLE "0:"
    INDEX 01 00:14:54
  TRACK 12 AUDIO
    TITLE "5:cjc021_5662"
    INDEX 01 00:15:15
  TRACK 13 AUDIO
    TITLE "0:"
    INDEX 01 00:19:40
  TRACK 14 AUDIO
    TITLE "3:cjc021_5663"
    INDEX 01 00:21:00
  TRACK 15 AUDIO
    TITLE "0:"
    INDEX 01 00:22:03
  TRACK 16 AUDIO
    TITLE "4:cjc021_5664"
    INDEX 01 00:23:53
  TRACK 17 AUDIO
    TITLE "0:"
    INDEX 01 00:24:57
  TRACK 18 AUDIO
    TITLE "5:cjc021_5665"
    INDEX 01 00:25:17
  TRACK 19 AUDIO
    TITLE "0:"
    INDEX 01 00:27:61
  TRACK 20 AUDIO
    TITLE "3:cjc021_5666"
    INDEX 01 00:29:21
  TRACK 21 AUDIO
    TITLE "0:"
    INDEX 01 00:30:38
  TRACK 22 AUDIO
    TITLE "4:cjc021_5667"
    INDEX 01 00:32:11
  TRACK 23 AUDIO
    TITLE "0:"
    INDEX 01 00:33:28
  TRACK 24 AUDIO
    TITLE "5:cjc021_5668"
    INDEX 01 00:33:64
  TRACK 25 AUDIO
    TITLE "0:"
    INDEX 01 00:36:46
  TRACK 26 AUDIO
    TITLE "3:cjc021_5669"
    INDEX 01 00:38:04
  TRACK 27 AUDIO
    TITLE "0:"
    INDEX 01 00:39:21
  TRACK 28 AUDIO
    TITLE "4:cjc021_5670"
    INDEX 01 00:40:72
  TRACK 29 AUDIO
    TITLE "0:"
    INDEX 01 00:42:12
  TRACK 30 AUDIO
    TITLE "5:cjc021_5671"
    INDEX 01 00:42:47
  TRACK 31 AUDIO
    TITLE "0:"
    INDEX 01 00:45:10
  TRACK 32 AUDIO
    TITLE "3:cjc021_5672"
    INDEX 01 00:46:47
  TRACK 33 AUDIO
    TITLE "0:"
    INDEX 01 00:47:56
  TRACK 34 AUDIO
    TITLE "4:cjc021_5673"
    INDEX 01 00:49:29
  TRACK 35 AUDIO
    TITLE "0:"
    INDEX 01 00:50:39
  TRACK 36 AUDIO
    TITLE "5:cjc021_5674"
    INDEX 01 00:50:74
  TRACK 37 AUDIO
    TITLE "0:"
    INDEX 01 00:53:72
  TRACK 38 AUDIO
    TITLE "3:cjc021_5675"
    INDEX 01 00:55:34
  TRACK 39 AUDIO
    TITLE "0:"
    INDEX 01 00:56:53
  TRACK 40 AUDIO
    TITLE "4:cjc021_5676"
    INDEX 01 00:58:28
  TRACK 41 AUDIO
    TITLE "0:"
    INDEX 01 00:59:49
  TRACK 42 AUDIO
    TITLE "5:cjc021_5677"
    INDEX 01 01:00:08
  TRACK 43 AUDIO
    TITLE "0:"
    INDEX 01 01:02:24
  TRACK 44 AUDIO
    TITLE "3:cjc021_5678"
    INDEX 01 01:03:59
  TRACK 45 AUDIO
    TITLE "0:"
    INDEX 01 01:04:66
  TRACK 46 AUDIO
    TITLE "4:cjc021_5679"
    INDEX 01 01:06:42
  TRACK 47 AUDIO
    TITLE "0:"
    INDEX 01 01:07:51
  TRACK 48 AUDIO
    TITLE "5:cjc021_5680"
    INDEX 01 01:08:09
  TRACK 49 AUDIO
    TITLE "0:"
    INDEX 01 01:10:12
  TRACK 50 AUDIO
    TITLE "3:cjc021_5681"
    INDEX 01 01:11:47
  TRACK 51 AUDIO
    TITLE "0:"
    INDEX 01 01:13:02
  TRACK 52 AUDIO
    TITLE "4:cjc021_5682"
    INDEX 01 01:14:53
  TRACK 53 AUDIO
    TITLE "0:"
    INDEX 01 01:16:07
  TRACK 54 AUDIO
    TITLE "5:cjc021_5683"
    INDEX 01 01:16:44
  TRACK 55 AUDIO
    TITLE "0:"
    INDEX 01 01:19:30
  TRACK 56 AUDIO
    TITLE "3:cjc021_5684"
    INDEX 01 01:20:67
  TRACK 57 AUDIO
    TITLE "0:"
    INDEX 01 01:22:05
  TRACK 58 AUDIO
    TITLE "4:cjc021_5685"
    INDEX 01 01:23:56
  TRACK 59 AUDIO
    TITLE "0:"
    INDEX 01 01:24:69
  TRACK 60 AUDIO
    TITLE "5:cjc021_5686"
    INDEX 01 01:25:29
  TRACK 61 AUDIO
    TITLE "0:"
    INDEX 01 01:28:20
